<?xml version="1.0" encoding="UTF-8" standalone="no"?>
<svg
   id="icons"
   viewBox="0 0 48 48"
   version="1.1"
   sodipodi:docname="icon.svg"
   inkscape:version="1.1.2 (0a00cf5339, 2022-02-04)"
   xmlns:inkscape="http://www.inkscape.org/namespaces/inkscape"
   xmlns:sodipodi="http://sodipodi.sourceforge.net/DTD/sodipodi-0.dtd"
   xmlns="http://www.w3.org/2000/svg"
   xmlns:svg="http://www.w3.org/2000/svg"
   xmlns:rdf="http://www.w3.org/1999/02/22-rdf-syntax-ns#"
   xmlns:cc="http://creativecommons.org/ns#"
   xmlns:dc="http://purl.org/dc/elements/1.1/">
  <defs
     id="defs40" />
  <sodipodi:namedview
     id="namedview38"
     pagecolor="#505050"
     bordercolor="#ffffff"
     borderopacity="1"
     inkscape:pageshadow="0"
     inkscape:pageopacity="0"
     inkscape:pagecheckerboard="1"
     showgrid="false"
     inkscape:zoom="17.333333"
     inkscape:cx="21.375"
     inkscape:cy="23.048077"
     inkscape:window-width="2560"
     inkscape:window-height="1043"
     inkscape:window-x="1920"
     inkscape:window-y="0"
     inkscape:window-maximized="1"
     inkscape:current-layer="computer-smartphone-tablet-sync" />
  <title
     id="title2">computer-smartphone-tablet-sync</title>
  <g
     id="computer-smartphone-tablet-sync">
    <polyline
       points="34 26 38 23 34 20"
       fill="none"
       stroke="#423e5e"
       stroke-linecap="round"
       stroke-linejoin="round"
       stroke-width="2"
       id="polyline28" />
    <path
       d="m 28,35 h 18 v 4 a 2,2 0 0 1 -2,2 H 30 a 2,2 0 0 1 -2,-2 z"
       fill="#ffffff"
       id="path4" />
    <rect
       x="17"
       y="34"
       width="6"
       height="8"
       fill="#ffffff"
       id="rect6" />
    <path
       d="m 28,29 v 5 H 4 A 2,2 0 0 1 2,32 v -3 z"
       fill="#ffffff"
       id="path8" />
    <polyline
       points="22 24 19.28 21.96 18 21 22 18"
       fill="none"
       stroke="#423e5e"
       stroke-linecap="round"
       stroke-linejoin="round"
       stroke-width="2"
       id="polyline26" />
    <path
       d="M 36,29 H 4 A 2,2 0 0 1 2,27 V 8 A 2,2 0 0 1 4,6 h 32 a 2,2 0 0 1 2,2 v 19 a 2,2 0 0 1 -2,2 z"
       fill="#60deae"
       id="path10" />
    <path
       d="m 28,16 a 2,2 0 0 1 2,-2 h 14 a 2,2 0 0 1 2,2 V 36 H 28 Z"
       fill="#ffd259"
       id="path12"
       style="fill:#60deae;fill-opacity:1" />
    <line
       x1="24"
       y1="35"
       x2="24"
       y2="42"
       fill="none"
       stroke="#423e5e"
       stroke-miterlimit="10"
       stroke-width="2"
       id="line14" />
    <line
       x1="16"
       y1="42"
       x2="16"
       y2="35"
       fill="none"
       stroke="#423e5e"
       stroke-miterlimit="10"
       stroke-width="2"
       id="line16" />
    <polyline
       points="14.5 42 16.7 42 23.3 42 25.5 42"
       fill="none"
       stroke="#423e5e"
       stroke-linecap="round"
       stroke-miterlimit="10"
       stroke-width="2"
       id="polyline18" />
    <polyline
       points="2 29 22 29 28 29"
       fill="none"
       stroke="#423e5e"
       stroke-miterlimit="10"
       stroke-width="2"
       id="polyline20" />
    <path
       d="M 28,35 H 4 A 2,2 0 0 1 2,33 V 8 A 2,2 0 0 1 4,6 h 32 a 2,2 0 0 1 2,2 v 6"
       fill="none"
       stroke="#423e5e"
       stroke-linecap="round"
       stroke-linejoin="round"
       stroke-width="2"
       id="path22" />
    <line
       x1="39"
       y1="39"
       x2="35"
       y2="39"
       fill="none"
       stroke="#423e5e"
       stroke-miterlimit="10"
       stroke-width="2"
       id="line24" />
    <path
       d="m 28,25 v 15 c 0,1.104569 0.895431,2 2,2 h 14 c 1.104569,0 2,-0.895431 2,-2 V 16 c 0,-1.104569 -0.895431,-2 -2,-2 H 30 c -1.104569,0 -2,0.895431 -2,2 v 3 c 0,1.104569 0.02147,1.712431 0,10"
       fill="none"
       stroke="#423e5e"
       stroke-linecap="round"
       stroke-miterlimit="10"
       stroke-width="2"
       id="path30"
       sodipodi:nodetypes="csssssssssc" />
    <line
       x1="28"
       y1="36"
       x2="46"
       y2="36"
       fill="none"
       stroke="#423e5e"
       stroke-linecap="round"
       stroke-linejoin="round"
       stroke-width="2"
       id="line32" />
    <line
       x1="19"
       y1="32"
       x2="21"
       y2="32"
       fill="none"
       stroke="#423e5e"
       stroke-miterlimit="10"
       stroke-width="2"
       id="line34" />
    <g
       aria-label="1
"
       id="text7208"
       style="font-size:14.4354px;line-height:1.25;fill:#423e5e;stroke-width:0.360884">
      <path
         d="M 4.6946595,10.417073 Q 5.1132861,10.243848 5.5607835,10.027317 6.0227163,9.796351 6.4557783,9.5365138 6.8888403,9.2622412 7.2785961,8.9735332 7.6827873,8.6703898 8.0003661,8.3383756 H 9.5016477 V 18.342108 H 7.3507731 v -7.203265 q -0.433062,0.288708 -0.9671718,0.53411 -0.5341098,0.230966 -1.0393488,0.404191 z"
         style="font-weight:bold;font-family:Ubuntu;-inkscape-font-specification:'Ubuntu Bold'"
         id="path34730" />
    </g>
    <g
       aria-label="2"
       id="text16310"
       style="font-size:14.1342px;line-height:1.25;fill:#423e5e;stroke-width:0.353355">
      <path
         d="m 37.328143,20.219658 q 0,0.537099 -0.212013,1.031796 -0.212013,0.494697 -0.551234,0.961126 -0.339221,0.452294 -0.763247,0.87632 -0.424026,0.424026 -0.833918,0.80565 -0.212013,0.197879 -0.466429,0.452294 -0.240281,0.240282 -0.466428,0.494697 -0.226147,0.254416 -0.409892,0.480563 -0.16961,0.212013 -0.212013,0.353355 h 4.211992 v 1.766775 H 31.09496 q -0.02827,-0.155476 -0.02827,-0.395758 0,-0.240281 0,-0.33922 0,-0.678442 0.212013,-1.24381 0.226147,-0.565368 0.579502,-1.045931 0.353355,-0.494697 0.791515,-0.918723 0.452295,-0.424026 0.890455,-0.848052 0.339221,-0.325086 0.636039,-0.60777 0.296818,-0.296819 0.522965,-0.565368 0.226148,-0.282684 0.353355,-0.551234 0.127208,-0.282684 0.127208,-0.565368 0,-0.621905 -0.353355,-0.876321 -0.353355,-0.254415 -0.87632,-0.254415 -0.381624,0 -0.720845,0.127208 -0.325086,0.113073 -0.60777,0.282684 -0.26855,0.155476 -0.466429,0.325086 -0.197879,0.155476 -0.296818,0.254416 l -1.045931,-1.469957 q 0.621905,-0.579502 1.441689,-0.946991 0.833917,-0.381624 1.780909,-0.381624 0.862186,0 1.484091,0.197879 0.621905,0.197879 1.017662,0.565368 0.409892,0.353355 0.593637,0.87632 0.197879,0.508832 0.197879,1.159005 z"
         style="font-weight:bold;font-family:Ubuntu;-inkscape-font-specification:'Ubuntu Bold'"
         id="path34690" />
    </g>
  </g>
  <metadata
     id="metadata857">
    <rdf:RDF>
      <cc:Work
         rdf:about="">
        <dc:title>computer-smartphone-tablet-sync</dc:title>
      </cc:Work>
    </rdf:RDF>
  </metadata>
</svg>
